<?xml version="1.0" encoding="utf-8"?>
<!-- Generator: Adobe Illustrator 16.0.0, SVG Export Plug-In . SVG Version: 6.00 Build 0)  -->
<!DOCTYPE svg PUBLIC "-//W3C//DTD SVG 1.1//EN" "http://www.w3.org/Graphics/SVG/1.1/DTD/svg11.dtd">
<svg version="1.1" id="Layer_1" xmlns="http://www.w3.org/2000/svg" xmlns:xlink="http://www.w3.org/1999/xlink" x="0px" y="0px"
	 width="178px" height="177.131px" viewBox="0 0 178 177.131" enable-background="new 0 0 178 177.131" xml:space="preserve">
<path fill="#28BFCF" d="M178,142.131c0,19.33-15.67,35-35,35H35c-19.33,0-35-15.67-35-35V35C0,15.67,15.67,0,35,0h108
	c19.33,0,35,15.67,35,35V142.131z"/>
<path fill="#FFFFFF" d="M89.33,13.67c0.741,0,1.483,0,2.226,0c0.107,0.036,0.211,0.086,0.321,0.104
	c4.111,0.69,7.271,4.293,7.363,8.438c0.039,1.819,0.016,3.641,0.022,5.461c0.001,0.158,0.017,0.315,0.026,0.482
	c0.077-0.02,0.114-0.019,0.14-0.037c0.123-0.088,0.241-0.184,0.365-0.271c2.55-1.79,5.318-2.248,8.25-1.186
	c5.495,1.992,7.494,8.601,4.126,13.49c-4.216,6.117-8.433,12.234-12.639,18.357c-0.143,0.208-0.258,0.485-0.258,0.73
	c-0.016,4.855-0.012,9.711-0.01,14.566c0,0.122,0.028,0.244,0.047,0.395c0.112-0.049,0.176-0.07,0.232-0.103
	c4.272-2.467,8.546-4.932,12.813-7.409c0.158-0.091,0.288-0.275,0.371-0.445c0.67-1.377,1.326-2.761,1.984-4.144
	c2.603-5.47,5.183-10.952,7.814-16.408c1.526-3.164,5.075-5.164,8.478-4.879c3.757,0.313,6.741,2.661,7.845,6.162
	c0.434,1.376,0.466,2.778,0.268,4.256c0.188-0.1,0.334-0.171,0.475-0.252c1.459-0.841,2.921-1.676,4.374-2.527
	c1.557-0.911,3.226-1.305,5.028-1.213c3.712,0.191,6.922,2.693,7.976,6.256c0.142,0.478,0.236,0.969,0.354,1.455
	c0,0.674,0,1.349,0,2.023c-0.031,0.074-0.08,0.145-0.091,0.222c-0.269,1.892-1.059,3.532-2.356,4.935
	c-0.851,0.919-1.92,1.524-2.988,2.135c-1.297,0.743-2.589,1.494-3.933,2.27c0.199,0.092,0.333,0.159,0.471,0.217
	c3.901,1.638,6.061,5.708,5.246,9.889c-0.784,4.028-4.498,7.115-8.649,7.037c-2.271-0.043-4.537-0.308-6.804-0.487
	c-5.425-0.431-10.849-0.875-16.274-1.294c-0.311-0.024-0.677,0.055-0.946,0.21c-4.165,2.386-8.318,4.791-12.474,7.193
	c-0.122,0.071-0.235,0.157-0.385,0.258c0.113,0.077,0.179,0.127,0.249,0.168c4.244,2.45,8.486,4.903,12.74,7.338
	c0.226,0.129,0.544,0.162,0.812,0.142c2.755-0.21,5.509-0.442,8.263-0.664c4.114-0.331,8.228-0.677,12.345-0.974
	c1.271-0.092,2.573-0.197,3.825-0.029c3.771,0.503,6.758,3.556,7.38,7.37c0.599,3.666-1.319,7.414-4.684,9.145
	c-0.343,0.176-0.697,0.327-1.091,0.511c0.176,0.108,0.312,0.199,0.455,0.281c1.473,0.852,2.946,1.701,4.419,2.552
	c2.051,1.186,3.409,2.92,4.087,5.184c0.153,0.51,0.258,1.034,0.384,1.552c0,0.675,0,1.349,0,2.023
	c-0.187,0.694-0.321,1.407-0.569,2.078c-1.802,4.878-7.771,7.13-12.348,4.65c-1.628-0.882-3.214-1.842-4.82-2.765
	c-0.137-0.079-0.278-0.151-0.475-0.258c0.287,1.959,0.128,3.794-0.75,5.494c-1.655,3.202-4.323,4.947-7.923,4.917
	c-3.707-0.031-6.462-1.814-8.078-5.187c-3.206-6.694-6.375-13.406-9.574-20.104c-0.127-0.266-0.365-0.526-0.62-0.675
	c-4.133-2.407-8.275-4.796-12.418-7.188c-0.136-0.078-0.281-0.141-0.485-0.242c0,0.293,0,0.492,0,0.691
	c0,4.62,0.008,9.24-0.011,13.86c-0.002,0.55,0.133,0.99,0.446,1.443c4.182,6.04,8.344,12.093,12.515,18.14
	c1.332,1.933,1.831,4.058,1.517,6.38c-0.897,6.614-8.606,9.847-13.956,5.851c-0.143-0.106-0.289-0.206-0.511-0.363
	c0,0.255,0,0.417,0,0.579c0,1.602,0.022,3.204-0.01,4.805c-0.015,0.755-0.062,1.521-0.216,2.257
	c-0.901,4.289-5.136,7.36-9.457,6.895c-4.49-0.483-7.951-4.286-7.955-8.743c-0.002-1.753,0-3.507-0.001-5.261
	c-0.001-0.156-0.017-0.312-0.027-0.529c-0.189,0.138-0.312,0.226-0.432,0.314c-1.431,1.064-3.035,1.708-4.813,1.767
	c-3.552,0.116-6.367-1.307-8.115-4.418c-1.784-3.176-1.674-6.423,0.391-9.458c4.205-6.187,8.48-12.326,12.714-18.493
	c0.159-0.231,0.271-0.55,0.272-0.827c0.016-4.806,0.012-9.611,0.01-14.417c0-0.142-0.017-0.283-0.029-0.477
	c-0.217,0.114-0.381,0.192-0.538,0.283c-4.099,2.365-8.2,4.727-12.287,7.11c-0.295,0.172-0.57,0.476-0.718,0.783
	c-3.224,6.742-6.427,13.493-9.635,20.242c-1.644,3.455-5.429,5.451-9.319,4.917c-3.675-0.504-6.713-3.446-7.316-7.179
	c-0.163-1.013-0.111-2.06-0.159-3.092c-0.097,0.053-0.259,0.136-0.416,0.226c-1.562,0.898-3.107,1.828-4.689,2.691
	c-4.281,2.339-9.877,0.584-12.02-3.796c-0.429-0.876-0.627-1.865-0.932-2.803c0-0.742,0-1.484,0-2.226
	c0.034-0.109,0.081-0.215,0.1-0.326c0.355-2.043,1.205-3.859,2.822-5.165c1.144-0.923,2.466-1.628,3.725-2.404
	c0.869-0.537,1.767-1.029,2.707-1.572c-0.237-0.103-0.406-0.174-0.575-0.247c-3.746-1.619-5.938-5.679-5.188-9.605
	c0.897-4.693,5.021-7.721,9.855-7.268c2.298,0.216,4.601,0.384,6.9,0.569c5.021,0.404,10.042,0.809,15.064,1.196
	c0.28,0.021,0.609-0.051,0.853-0.189c4.164-2.387,8.318-4.791,12.474-7.192c0.138-0.079,0.267-0.173,0.438-0.284
	c-0.142-0.089-0.223-0.145-0.31-0.194c-4.214-2.435-8.426-4.873-12.649-7.29c-0.252-0.144-0.608-0.176-0.907-0.153
	c-2.738,0.206-5.476,0.438-8.213,0.657c-4.114,0.331-8.228,0.68-12.344,0.976c-1.288,0.092-2.618,0.228-3.874,0.016
	c-3.481-0.588-5.886-2.646-6.975-5.995c-1.073-3.298-0.307-6.287,2.07-8.832c0.923-0.988,2.061-1.669,3.386-2.177
	c-0.243-0.146-0.424-0.258-0.609-0.365c-1.443-0.834-2.891-1.662-4.33-2.502c-2.097-1.222-3.452-3.019-4.11-5.347
	c-0.118-0.417-0.207-0.841-0.31-1.262c0-0.742,0-1.484,0-2.226c0.086-0.355,0.165-0.713,0.258-1.066
	c1.467-5.548,7.806-8.256,12.826-5.468c1.59,0.883,3.154,1.812,4.731,2.719c0.104,0.06,0.218,0.101,0.314,0.146
	c0-0.946-0.094-1.863,0.017-2.755c0.472-3.831,3.476-6.897,7.282-7.514c3.865-0.626,7.782,1.438,9.443,4.945
	c3.214,6.784,6.44,13.562,9.672,20.337c0.102,0.212,0.283,0.428,0.484,0.545c4.193,2.437,8.396,4.86,12.597,7.283
	c0.12,0.07,0.255,0.116,0.436,0.196c0-0.25,0-0.417,0-0.584c0-4.738,0.005-9.477-0.013-14.215c-0.001-0.311-0.11-0.668-0.285-0.924
	c-4.223-6.155-8.459-12.301-12.698-18.444c-1.26-1.826-1.782-3.851-1.527-6.038c0.807-6.915,8.553-10.225,14.124-6.055
	c0.109,0.083,0.229,0.149,0.399,0.259c0-1.962-0.001-3.833,0-5.705c0.001-3.641,2.234-6.923,5.638-8.236
	C87.93,14.017,88.64,13.869,89.33,13.67z M86.192,42.305c-0.033,0.011-0.066,0.022-0.1,0.034c-0.125-0.177-0.251-0.352-0.374-0.53
	c-2.122-3.078-4.24-6.159-6.367-9.233c-0.882-1.276-2.127-1.937-3.66-1.872c-1.654,0.07-2.932,0.881-3.661,2.39
	c-0.728,1.503-0.574,2.979,0.374,4.355c4.511,6.55,9.028,13.095,13.532,19.65c0.149,0.217,0.245,0.52,0.246,0.784
	c0.013,7.925,0.011,15.851,0.009,23.777c0,0.156-0.018,0.312-0.028,0.51c-0.143-0.076-0.231-0.12-0.317-0.17
	c-6.929-3.999-13.857-7.996-20.78-12.004c-0.188-0.108-0.358-0.307-0.452-0.504c-3.431-7.184-6.854-14.372-10.271-21.562
	c-1.068-2.249-3.542-3.194-5.715-2.161c-2.176,1.036-3.025,3.559-1.96,5.792c1.639,3.433,3.271,6.869,4.902,10.305
	c0.052,0.108,0.08,0.227,0.149,0.429c-0.313-0.177-0.533-0.3-0.751-0.426c-5.454-3.15-10.91-6.298-16.362-9.452
	c-0.779-0.451-1.604-0.707-2.505-0.639c-1.925,0.144-3.476,1.463-3.889,3.285c-0.427,1.88,0.379,3.686,2.096,4.678
	c5.527,3.194,11.056,6.385,16.583,9.577c0.167,0.097,0.333,0.195,0.564,0.332c-0.134,0.045-0.175,0.068-0.217,0.072
	c-3.862,0.309-7.725,0.626-11.588,0.92c-2.392,0.182-4.134,2.079-4.042,4.445c0.089,2.299,1.972,4.076,4.327,4.04
	c0.892-0.015,1.781-0.123,2.671-0.193c3.612-0.287,7.223-0.574,10.834-0.863c3.543-0.284,7.087-0.576,10.631-0.844
	c0.278-0.021,0.606,0.062,0.851,0.203c6.861,3.945,13.716,7.905,20.571,11.863c0.124,0.072,0.241,0.158,0.404,0.267
	c-0.158,0.101-0.265,0.175-0.377,0.239c-6.885,3.975-13.769,7.95-20.659,11.914c-0.216,0.124-0.508,0.188-0.757,0.173
	c-1.244-0.077-2.486-0.19-3.729-0.29c-3.191-0.256-6.383-0.511-9.574-0.767c-3.51-0.281-7.019-0.567-10.529-0.84
	c-0.366-0.028-0.748-0.025-1.107,0.041c-2.224,0.413-3.686,2.263-3.556,4.467c0.128,2.162,1.863,3.818,4.108,3.98
	c3.125,0.225,6.248,0.486,9.372,0.734c0.759,0.061,1.516,0.133,2.388,0.21c-0.213,0.14-0.319,0.216-0.433,0.281
	c-1.808,1.045-3.617,2.088-5.426,3.132c-3.749,2.164-7.495,4.331-11.247,6.489c-1.301,0.749-2.106,1.843-2.244,3.342
	c-0.157,1.709,0.515,3.083,1.956,4.004c1.447,0.923,2.966,0.911,4.452,0.055c5.545-3.194,11.085-6.399,16.627-9.6
	c0.159-0.092,0.323-0.174,0.599-0.321c-0.118,0.266-0.17,0.39-0.228,0.51c-1.64,3.451-3.285,6.899-4.918,10.354
	c-1.014,2.146-0.124,4.647,1.992,5.661c2.134,1.022,4.665,0.118,5.688-2.035c3.424-7.206,6.845-14.413,10.279-21.613
	c0.113-0.238,0.33-0.471,0.559-0.604c5.827-3.381,11.663-6.748,17.496-10.116c1.162-0.671,2.325-1.339,3.562-2.052
	c0,0.264,0,0.442,0,0.622c0,7.386-0.033,14.771,0.03,22.157c0.012,1.388-0.345,2.487-1.135,3.616
	c-4.262,6.087-8.451,12.224-12.673,18.338c-0.721,1.042-1.001,2.178-0.723,3.405c0.4,1.761,1.529,2.89,3.279,3.262
	c1.805,0.384,3.303-0.249,4.363-1.759c1.888-2.689,3.736-5.406,5.602-8.11c0.387-0.56,0.774-1.116,1.161-1.675
	c0.032,0.012,0.063,0.022,0.095,0.033c0,0.348,0,0.695,0,1.044c0,6.272-0.003,12.546,0.002,18.819
	c0.003,2.586,2.354,4.588,4.871,4.164c2.191-0.369,3.624-2.088,3.626-4.372c0.004-6.374,0.001-12.749,0.001-19.122
	c0-0.177,0-0.353,0-0.653c0.183,0.245,0.284,0.372,0.377,0.507c2.152,3.121,4.299,6.246,6.458,9.362
	c0.895,1.289,2.163,1.972,3.716,1.854c3.473-0.263,5.165-3.922,3.188-6.793c-4.482-6.508-8.97-13.014-13.44-19.529
	c-0.175-0.255-0.285-0.612-0.285-0.922c-0.016-7.875-0.013-15.75-0.013-23.624c0-0.179,0-0.355,0-0.601
	c0.152,0.079,0.24,0.121,0.324,0.17c6.929,3.999,13.857,7.998,20.779,12.008c0.2,0.116,0.38,0.332,0.481,0.543
	c2.085,4.357,4.157,8.721,6.23,13.084c1.353,2.842,2.69,5.69,4.058,8.526c0.932,1.933,2.934,2.874,4.906,2.349
	c2.668-0.711,3.938-3.513,2.733-6.054c-1.606-3.393-3.222-6.78-4.832-10.171c-0.072-0.152-0.135-0.309-0.261-0.598
	c1.56,0.898,2.975,1.713,4.389,2.528c4.273,2.468,8.547,4.936,12.819,7.405c1.108,0.641,2.282,0.819,3.499,0.405
	c1.71-0.582,2.724-1.811,2.918-3.589c0.197-1.81-0.568-3.229-2.145-4.145c-5.55-3.222-11.111-6.422-16.669-9.632
	c-0.149-0.087-0.292-0.188-0.465-0.301c0.086-0.043,0.112-0.067,0.14-0.069c3.863-0.309,7.725-0.629,11.589-0.917
	c2.341-0.175,4.151-2.065,4.084-4.321c-0.071-2.399-1.942-4.221-4.361-4.164c-1.295,0.03-2.587,0.186-3.881,0.289
	c-3.661,0.29-7.322,0.581-10.983,0.874c-3.091,0.247-6.181,0.5-9.271,0.732c-0.249,0.02-0.544-0.041-0.76-0.165
	c-6.875-3.955-13.744-7.923-20.613-11.891c-0.137-0.079-0.264-0.174-0.432-0.285c0.145-0.09,0.229-0.146,0.314-0.195
	c6.913-3.992,13.825-7.986,20.745-11.966c0.228-0.131,0.544-0.177,0.811-0.157c3.494,0.267,6.986,0.55,10.479,0.831
	c3.998,0.322,7.994,0.652,11.992,0.964c0.787,0.062,1.597,0.168,2.366,0.055c2.143-0.315,3.69-2.223,3.589-4.284
	c-0.11-2.249-1.718-3.952-3.942-4.137c-3.123-0.26-6.247-0.496-9.372-0.744c-0.812-0.065-1.623-0.139-2.569-0.22
	c0.237-0.152,0.355-0.234,0.479-0.306c3.019-1.744,6.037-3.488,9.057-5.231c2.552-1.474,5.105-2.946,7.655-4.423
	c1.338-0.775,2.109-1.938,2.184-3.482c0.08-1.668-0.623-2.991-2.052-3.856c-1.45-0.878-2.944-0.835-4.41,0.01
	c-5.499,3.174-10.996,6.35-16.495,9.525c-0.195,0.112-0.394,0.219-0.696,0.388c0.143-0.321,0.226-0.519,0.317-0.713
	c1.598-3.359,3.194-6.719,4.797-10.076c0.405-0.848,0.564-1.729,0.391-2.653c-0.36-1.919-1.834-3.264-3.812-3.503
	c-1.734-0.21-3.452,0.82-4.295,2.592c-3.39,7.129-6.772,14.262-10.174,21.386c-0.134,0.28-0.384,0.559-0.651,0.714
	c-6.847,3.972-13.703,7.928-20.559,11.885c-0.124,0.071-0.257,0.127-0.427,0.209c0-0.159,0-0.26,0-0.359
	c0-7.993-0.002-15.986,0.012-23.979c0.001-0.26,0.123-0.555,0.274-0.774c4.484-6.527,8.98-13.046,13.473-19.569
	c1.405-2.041,0.979-4.631-0.981-5.994c-2.002-1.392-4.565-0.904-5.992,1.155c-2.062,2.978-4.113,5.963-6.171,8.946
	c-0.174,0.252-0.351,0.504-0.526,0.755c-0.028-0.015-0.059-0.03-0.088-0.045c0-0.182,0-0.364,0-0.546
	c0-6.391,0.007-12.782-0.004-19.173c-0.004-2.445-1.899-4.358-4.261-4.348c-2.386,0.009-4.234,1.914-4.234,4.363
	c-0.001,6.391-0.001,12.782-0.001,19.173C86.192,41.941,86.192,42.124,86.192,42.305z"/>
</svg>
