<?xml version="1.0" encoding="utf-8"?>
<!-- Generator: Adobe Illustrator 16.0.0, SVG Export Plug-In . SVG Version: 6.00 Build 0)  -->
<!DOCTYPE svg PUBLIC "-//W3C//DTD SVG 1.1//EN" "http://www.w3.org/Graphics/SVG/1.1/DTD/svg11.dtd">
<svg version="1.1" id="Layer_1" xmlns="http://www.w3.org/2000/svg" xmlns:xlink="http://www.w3.org/1999/xlink" x="0px" y="0px"
	 width="213.032px" height="226.685px" viewBox="0 0 213.032 226.685" enable-background="new 0 0 213.032 226.685"
	 xml:space="preserve">
<g>
	<path d="M102.536,227.126C45.997,227.126,0,181.129,0,124.59C0,68.052,45.997,22.055,102.536,22.055
		c56.538,0,102.535,45.997,102.535,102.536C205.071,181.129,159.074,227.126,102.536,227.126z M102.536,38.055
		C54.82,38.055,16,76.875,16,124.59s38.82,86.536,86.536,86.536s86.535-38.82,86.535-86.536S150.251,38.055,102.536,38.055z"/>
</g>
<rect x="81.913" width="45.901" height="17.486"/>
<rect x="168.159" y="38.797" transform="matrix(0.6737 0.739 -0.739 0.6737 97.4995 -125.7225)" width="45.901" height="17.486"/>
</svg>
